<?xml version="1.0" encoding="UTF-8" standalone="no"?>
<!DOCTYPE svg PUBLIC "-//W3C//DTD SVG 1.1//EN"
 "http://www.w3.org/Graphics/SVG/1.1/DTD/svg11.dtd">
<!-- Generated by graphviz version 2.38.0 (20140413.2041)
 -->
<!-- Title: %3 Pages: 1 -->
<svg width="1274pt" height="1185pt"
 viewBox="0.00 0.00 1274.00 1184.55" xmlns="http://www.w3.org/2000/svg" xmlns:xlink="http://www.w3.org/1999/xlink">
<g id="graph0" class="graph" transform="scale(1 1) rotate(0) translate(4 1180.55)">
<title>%3</title>
<polygon fill="white" stroke="none" points="-4,4 -4,-1180.55 1270,-1180.55 1270,4 -4,4"/>
<!-- 279111215535866947 -->
<g id="node1" class="node"><title>279111215535866947</title>
<polygon fill="none" stroke="black" points="1238,-495.078 1094,-495.078 1094,-459.078 1238,-459.078 1238,-495.078"/>
<text text-anchor="middle" x="1166" y="-473.378" font-family="Times,serif" font-size="14.00">(&#39;svc&#45;fit&#45;score&#45;#0&#39;, 1, 1)</text>
</g>
<!-- &#45;3892994624673990255 -->
<g id="node22" class="node"><title>&#45;3892994624673990255</title>
<ellipse fill="none" stroke="black" cx="554" cy="-602.572" rx="71.4873" ry="71.4873"/>
<text text-anchor="middle" x="554" y="-598.872" font-family="Times,serif" font-size="14.00">create_cv_results</text>
</g>
<!-- 279111215535866947&#45;&gt;&#45;3892994624673990255 -->
<g id="edge32" class="edge"><title>279111215535866947&#45;&gt;&#45;3892994624673990255</title>
<path fill="none" stroke="black" d="M1093.58,-493.311C1090.68,-493.91 1087.82,-494.501 1085,-495.078 925.224,-527.866 738.16,-565.118 634.157,-585.728"/>
<polygon fill="black" stroke="black" points="633.177,-582.354 624.047,-587.731 634.537,-589.221 633.177,-582.354"/>
</g>
<!-- &#45;8117666526044492179 -->
<g id="node2" class="node"><title>&#45;8117666526044492179</title>
<ellipse fill="none" stroke="black" cx="1127" cy="-339.886" rx="58.4896" ry="58.4896"/>
<text text-anchor="middle" x="1127" y="-336.186" font-family="Times,serif" font-size="14.00">fit_and_score</text>
</g>
<!-- &#45;8117666526044492179&#45;&gt;279111215535866947 -->
<g id="edge1" class="edge"><title>&#45;8117666526044492179&#45;&gt;279111215535866947</title>
<path fill="none" stroke="black" d="M1142.98,-396.264C1148.24,-414.512 1153.86,-433.989 1158.23,-449.135"/>
<polygon fill="black" stroke="black" points="1154.9,-450.222 1161.03,-458.86 1161.62,-448.281 1154.9,-450.222"/>
</g>
<!-- &#45;4103552227936769784 -->
<g id="node3" class="node"><title>&#45;4103552227936769784</title>
<polygon fill="none" stroke="black" points="627,-36 565,-36 565,-0 627,-0 627,-36"/>
<text text-anchor="middle" x="596" y="-14.3" font-family="Times,serif" font-size="14.00">array&#45;#1</text>
</g>
<!-- &#45;4103552227936769784&#45;&gt;&#45;8117666526044492179 -->
<g id="edge2" class="edge"><title>&#45;4103552227936769784&#45;&gt;&#45;8117666526044492179</title>
<path fill="none" stroke="black" d="M627.362,-20.9553C674.565,-24.9755 765.614,-36.9785 834,-72 922.455,-117.299 921.376,-161.226 1001,-220.693 1025.31,-238.848 1036.14,-236.744 1059,-256.693 1068.47,-264.957 1077.7,-274.615 1086.14,-284.347"/>
<polygon fill="black" stroke="black" points="1083.61,-286.771 1092.74,-292.143 1088.95,-282.249 1083.61,-286.771"/>
</g>
<!-- 4523972656863078496 -->
<g id="node10" class="node"><title>4523972656863078496</title>
<ellipse fill="none" stroke="black" cx="992" cy="-339.886" rx="58.4896" ry="58.4896"/>
<text text-anchor="middle" x="992" y="-336.186" font-family="Times,serif" font-size="14.00">fit_and_score</text>
</g>
<!-- &#45;4103552227936769784&#45;&gt;4523972656863078496 -->
<g id="edge9" class="edge"><title>&#45;4103552227936769784&#45;&gt;4523972656863078496</title>
<path fill="none" stroke="black" d="M627.282,-21.8811C666.569,-26.7682 734.675,-39.5517 783,-72 825.431,-100.491 906.494,-213.176 954.235,-282.693"/>
<polygon fill="black" stroke="black" points="951.35,-284.674 959.887,-290.948 957.125,-280.719 951.35,-284.674"/>
</g>
<!-- 4077005755129761663 -->
<g id="node14" class="node"><title>4077005755129761663</title>
<ellipse fill="none" stroke="black" cx="194" cy="-1067.5" rx="37.0935" ry="37.0935"/>
<text text-anchor="middle" x="194" y="-1063.8" font-family="Times,serif" font-size="14.00">fit_best</text>
</g>
<!-- &#45;4103552227936769784&#45;&gt;4077005755129761663 -->
<g id="edge15" class="edge"><title>&#45;4103552227936769784&#45;&gt;4077005755129761663</title>
<path fill="none" stroke="black" d="M564.796,-21.6818C442.164,-33.0637 0,-82.3759 0,-201.693 0,-201.693 0,-201.693 0,-853.26 0,-943.049 95.2748,-1011.72 152.289,-1044.77"/>
<polygon fill="black" stroke="black" points="150.666,-1047.87 161.091,-1049.76 154.122,-1041.78 150.666,-1047.87"/>
</g>
<!-- 4708006175386848269 -->
<g id="node17" class="node"><title>4708006175386848269</title>
<ellipse fill="none" stroke="black" cx="311" cy="-339.886" rx="58.4896" ry="58.4896"/>
<text text-anchor="middle" x="311" y="-336.186" font-family="Times,serif" font-size="14.00">fit_and_score</text>
</g>
<!-- &#45;4103552227936769784&#45;&gt;4708006175386848269 -->
<g id="edge19" class="edge"><title>&#45;4103552227936769784&#45;&gt;4708006175386848269</title>
<path fill="none" stroke="black" d="M573.887,-36.0114C561.412,-45.992 545.807,-59.1363 533,-72 464.505,-140.796 394.314,-228.68 351.679,-284.394"/>
<polygon fill="black" stroke="black" points="348.874,-282.3 345.592,-292.374 354.44,-286.546 348.874,-282.3"/>
</g>
<!-- &#45;593903665615043072 -->
<g id="node19" class="node"><title>&#45;593903665615043072</title>
<ellipse fill="none" stroke="black" cx="446" cy="-339.886" rx="58.4896" ry="58.4896"/>
<text text-anchor="middle" x="446" y="-336.186" font-family="Times,serif" font-size="14.00">fit_and_score</text>
</g>
<!-- &#45;4103552227936769784&#45;&gt;&#45;593903665615043072 -->
<g id="edge24" class="edge"><title>&#45;4103552227936769784&#45;&gt;&#45;593903665615043072</title>
<path fill="none" stroke="black" d="M587.935,-36.1985C566.956,-80.9382 509.876,-202.665 474.824,-277.416"/>
<polygon fill="black" stroke="black" points="471.529,-276.2 470.452,-286.74 477.867,-279.172 471.529,-276.2"/>
</g>
<!-- 2017832414299185584 -->
<g id="node20" class="node"><title>2017832414299185584</title>
<ellipse fill="none" stroke="black" cx="736" cy="-110.347" rx="38.1938" ry="38.1938"/>
<text text-anchor="middle" x="736" y="-106.647" font-family="Times,serif" font-size="14.00">cv_split</text>
</g>
<!-- &#45;4103552227936769784&#45;&gt;2017832414299185584 -->
<g id="edge29" class="edge"><title>&#45;4103552227936769784&#45;&gt;2017832414299185584</title>
<path fill="none" stroke="black" d="M625.702,-36.0819C642.936,-46.1925 664.936,-59.4425 684,-72 688.299,-74.8316 692.744,-77.8609 697.142,-80.9238"/>
<polygon fill="black" stroke="black" points="695.301,-83.9085 705.491,-86.8121 699.336,-78.1882 695.301,-83.9085"/>
</g>
<!-- &#45;7768445971166761754 -->
<g id="node25" class="node"><title>&#45;7768445971166761754</title>
<ellipse fill="none" stroke="black" cx="581" cy="-339.886" rx="58.4896" ry="58.4896"/>
<text text-anchor="middle" x="581" y="-336.186" font-family="Times,serif" font-size="14.00">fit_and_score</text>
</g>
<!-- &#45;4103552227936769784&#45;&gt;&#45;7768445971166761754 -->
<g id="edge41" class="edge"><title>&#45;4103552227936769784&#45;&gt;&#45;7768445971166761754</title>
<path fill="none" stroke="black" d="M594.436,-36.3964C591.793,-66.5586 586.487,-130.528 584,-184.693 582.699,-213.035 581.961,-244.331 581.543,-271.281"/>
<polygon fill="black" stroke="black" points="578.042,-271.333 581.398,-281.382 585.041,-271.434 578.042,-271.333"/>
</g>
<!-- 7324588239574472119 -->
<g id="node27" class="node"><title>7324588239574472119</title>
<ellipse fill="none" stroke="black" cx="716" cy="-339.886" rx="58.4896" ry="58.4896"/>
<text text-anchor="middle" x="716" y="-336.186" font-family="Times,serif" font-size="14.00">fit_and_score</text>
</g>
<!-- &#45;4103552227936769784&#45;&gt;7324588239574472119 -->
<g id="edge49" class="edge"><title>&#45;4103552227936769784&#45;&gt;7324588239574472119</title>
<path fill="none" stroke="black" d="M608.437,-36.427C628.64,-65.6182 668.399,-126.898 689,-184.693 698.833,-212.28 705.172,-243.965 709.216,-271.41"/>
<polygon fill="black" stroke="black" points="705.75,-271.896 710.605,-281.313 712.683,-270.924 705.75,-271.896"/>
</g>
<!-- 4327092148334350980 -->
<g id="node4" class="node"><title>4327092148334350980</title>
<polygon fill="none" stroke="black" points="871,-36 809,-36 809,-0 871,-0 871,-36"/>
<text text-anchor="middle" x="840" y="-14.3" font-family="Times,serif" font-size="14.00">array&#45;#2</text>
</g>
<!-- 4327092148334350980&#45;&gt;&#45;8117666526044492179 -->
<g id="edge3" class="edge"><title>4327092148334350980&#45;&gt;&#45;8117666526044492179</title>
<path fill="none" stroke="black" d="M859.85,-36.1328C871.3,-46.2605 885.8,-59.5105 898,-72 966.924,-142.557 1040.06,-230.349 1084.64,-285.523"/>
<polygon fill="black" stroke="black" points="1082,-287.832 1091,-293.421 1087.45,-283.439 1082,-287.832"/>
</g>
<!-- 4327092148334350980&#45;&gt;4523972656863078496 -->
<g id="edge10" class="edge"><title>4327092148334350980&#45;&gt;4523972656863078496</title>
<path fill="none" stroke="black" d="M848.172,-36.1985C869.431,-80.9382 927.272,-202.665 962.791,-277.416"/>
<polygon fill="black" stroke="black" points="959.769,-279.21 967.222,-286.74 966.091,-276.205 959.769,-279.21"/>
</g>
<!-- 4327092148334350980&#45;&gt;4077005755129761663 -->
<g id="edge16" class="edge"><title>4327092148334350980&#45;&gt;4077005755129761663</title>
<path fill="none" stroke="black" d="M871.325,-18.2281C969.704,-17.5787 1266,-29.8842 1266,-201.693 1266,-201.693 1266,-201.693 1266,-853.26 1266,-959.34 448.09,-1042.8 241.134,-1062.22"/>
<polygon fill="black" stroke="black" points="240.532,-1058.76 230.901,-1063.17 241.183,-1065.73 240.532,-1058.76"/>
</g>
<!-- 4327092148334350980&#45;&gt;4708006175386848269 -->
<g id="edge20" class="edge"><title>4327092148334350980&#45;&gt;4708006175386848269</title>
<path fill="none" stroke="black" d="M808.993,-20.4546C760.404,-23.841 664.497,-35.0518 593,-72 506.177,-116.868 507.356,-159.692 431,-220.693 409.039,-238.238 399.709,-237.686 379,-256.693 369.741,-265.191 360.613,-274.959 352.196,-284.727"/>
<polygon fill="black" stroke="black" points="349.382,-282.635 345.61,-292.536 354.733,-287.148 349.382,-282.635"/>
</g>
<!-- 4327092148334350980&#45;&gt;&#45;593903665615043072 -->
<g id="edge25" class="edge"><title>4327092148334350980&#45;&gt;&#45;593903665615043072</title>
<path fill="none" stroke="black" d="M808.856,-25.3597C776.896,-32.8929 726.656,-47.6001 689,-72 602.486,-128.059 526.813,-222.283 483.775,-282.47"/>
<polygon fill="black" stroke="black" points="480.848,-280.547 477.921,-290.73 486.559,-284.595 480.848,-280.547"/>
</g>
<!-- 4327092148334350980&#45;&gt;2017832414299185584 -->
<g id="edge30" class="edge"><title>4327092148334350980&#45;&gt;2017832414299185584</title>
<path fill="none" stroke="black" d="M819.948,-36.4197C806.455,-48.1413 788.276,-63.9332 772.286,-77.8243"/>
<polygon fill="black" stroke="black" points="769.896,-75.2643 764.642,-84.4647 774.487,-80.5488 769.896,-75.2643"/>
</g>
<!-- 4327092148334350980&#45;&gt;&#45;7768445971166761754 -->
<g id="edge42" class="edge"><title>4327092148334350980&#45;&gt;&#45;7768445971166761754</title>
<path fill="none" stroke="black" d="M837.491,-36.2947C832.462,-64.3985 818.423,-119.746 783,-148.693 724.543,-196.463 670.802,-131.735 617,-184.693 594.294,-207.043 584.769,-240.76 581.144,-270.97"/>
<polygon fill="black" stroke="black" points="577.647,-270.76 580.13,-281.06 584.612,-271.46 577.647,-270.76"/>
</g>
<!-- 4327092148334350980&#45;&gt;7324588239574472119 -->
<g id="edge50" class="edge"><title>4327092148334350980&#45;&gt;7324588239574472119</title>
<path fill="none" stroke="black" d="M842.029,-36.2173C845.514,-72.3749 849.659,-158.038 820,-220.693 810.319,-241.145 799.229,-239.957 784,-256.693 775.64,-265.88 766.993,-275.895 758.783,-285.674"/>
<polygon fill="black" stroke="black" points="756.02,-283.522 752.307,-293.445 761.398,-288.004 756.02,-283.522"/>
</g>
<!-- 8950244540730565118 -->
<g id="node5" class="node"><title>8950244540730565118</title>
<polygon fill="none" stroke="black" points="811.5,-220.693 736.5,-220.693 736.5,-184.693 811.5,-184.693 811.5,-220.693"/>
<text text-anchor="middle" x="774" y="-198.993" font-family="Times,serif" font-size="14.00">cv&#45;split&#45;#0</text>
</g>
<!-- 8950244540730565118&#45;&gt;&#45;8117666526044492179 -->
<g id="edge4" class="edge"><title>8950244540730565118&#45;&gt;&#45;8117666526044492179</title>
<path fill="none" stroke="black" d="M811.51,-209.21C883.956,-220.076 1037.88,-244.269 1059,-256.693 1070.19,-263.278 1080.36,-272.423 1089.22,-282.231"/>
<polygon fill="black" stroke="black" points="1086.56,-284.516 1095.73,-289.829 1091.88,-279.959 1086.56,-284.516"/>
</g>
<!-- &#45;353569814530233409 -->
<g id="node8" class="node"><title>&#45;353569814530233409</title>
<ellipse fill="none" stroke="black" cx="854" cy="-339.886" rx="61.1893" ry="61.1893"/>
<text text-anchor="middle" x="854" y="-336.186" font-family="Times,serif" font-size="14.00">cv_n_samples</text>
</g>
<!-- 8950244540730565118&#45;&gt;&#45;353569814530233409 -->
<g id="edge7" class="edge"><title>8950244540730565118&#45;&gt;&#45;353569814530233409</title>
<path fill="none" stroke="black" d="M784.132,-220.815C792.779,-235.428 805.753,-257.352 818.182,-278.356"/>
<polygon fill="black" stroke="black" points="815.171,-280.141 823.275,-286.964 821.195,-276.576 815.171,-280.141"/>
</g>
<!-- 8950244540730565118&#45;&gt;4523972656863078496 -->
<g id="edge11" class="edge"><title>8950244540730565118&#45;&gt;4523972656863078496</title>
<path fill="none" stroke="black" d="M811.782,-216.481C854.62,-231.064 919.188,-253.333 924,-256.693 934.423,-263.973 944.146,-273.258 952.795,-282.951"/>
<polygon fill="black" stroke="black" points="950.333,-285.457 959.494,-290.781 955.652,-280.907 950.333,-285.457"/>
</g>
<!-- 8950244540730565118&#45;&gt;4708006175386848269 -->
<g id="edge21" class="edge"><title>8950244540730565118&#45;&gt;4708006175386848269</title>
<path fill="none" stroke="black" d="M736.46,-211.889C721.713,-214.928 704.609,-218.23 689,-220.693 551.991,-242.312 500.882,-190.486 379,-256.693 367.458,-262.963 357.092,-272.067 348.137,-281.954"/>
<polygon fill="black" stroke="black" points="345.409,-279.759 341.567,-289.633 350.728,-284.309 345.409,-279.759"/>
</g>
<!-- 8950244540730565118&#45;&gt;&#45;593903665615043072 -->
<g id="edge26" class="edge"><title>8950244540730565118&#45;&gt;&#45;593903665615043072</title>
<path fill="none" stroke="black" d="M736.402,-211.275C664.66,-225.753 515.201,-255.973 514,-256.693 502.863,-263.374 492.725,-272.562 483.875,-282.383"/>
<polygon fill="black" stroke="black" points="481.21,-280.113 477.362,-289.985 486.526,-284.668 481.21,-280.113"/>
</g>
<!-- 8950244540730565118&#45;&gt;&#45;7768445971166761754 -->
<g id="edge43" class="edge"><title>8950244540730565118&#45;&gt;&#45;7768445971166761754</title>
<path fill="none" stroke="black" d="M736.283,-214.426C710.117,-223.075 675.368,-237.048 649,-256.693 638.805,-264.289 629.188,-273.721 620.572,-283.459"/>
<polygon fill="black" stroke="black" points="617.708,-281.424 613.885,-291.305 623.035,-285.965 617.708,-281.424"/>
</g>
<!-- 8950244540730565118&#45;&gt;7324588239574472119 -->
<g id="edge51" class="edge"><title>8950244540730565118&#45;&gt;7324588239574472119</title>
<path fill="none" stroke="black" d="M766.654,-220.815C760.574,-234.987 751.544,-256.035 742.786,-276.451"/>
<polygon fill="black" stroke="black" points="739.518,-275.19 738.792,-285.76 745.951,-277.95 739.518,-275.19"/>
</g>
<!-- 2949889458284159759 -->
<g id="node6" class="node"><title>2949889458284159759</title>
<polygon fill="none" stroke="black" points="680,-220.693 626,-220.693 626,-184.693 680,-184.693 680,-220.693"/>
<text text-anchor="middle" x="653" y="-198.993" font-family="Times,serif" font-size="14.00">svc&#45;#0</text>
</g>
<!-- 2949889458284159759&#45;&gt;&#45;8117666526044492179 -->
<g id="edge5" class="edge"><title>2949889458284159759&#45;&gt;&#45;8117666526044492179</title>
<path fill="none" stroke="black" d="M680.257,-210.764C694.167,-214.166 711.402,-218.065 727,-220.693 873.358,-245.351 928.311,-186.344 1059,-256.693 1070.57,-262.919 1080.94,-272.003 1089.9,-281.885"/>
<polygon fill="black" stroke="black" points="1087.31,-284.24 1096.47,-289.562 1092.63,-279.689 1087.31,-284.24"/>
</g>
<!-- 2949889458284159759&#45;&gt;4523972656863078496 -->
<g id="edge12" class="edge"><title>2949889458284159759&#45;&gt;4523972656863078496</title>
<path fill="none" stroke="black" d="M680.347,-210.285C694.279,-213.565 711.507,-217.5 727,-220.693 814.173,-238.662 847.214,-211.684 924,-256.693 935.204,-263.261 945.373,-272.397 954.232,-282.203"/>
<polygon fill="black" stroke="black" points="951.58,-284.488 960.747,-289.801 956.894,-279.931 951.58,-284.488"/>
</g>
<!-- 2949889458284159759&#45;&gt;4708006175386848269 -->
<g id="edge22" class="edge"><title>2949889458284159759&#45;&gt;4708006175386848269</title>
<path fill="none" stroke="black" d="M625.84,-206.592C565.188,-213.439 420.777,-231.915 379,-256.693 367.83,-263.318 357.677,-272.481 348.822,-282.295"/>
<polygon fill="black" stroke="black" points="346.159,-280.024 342.308,-289.894 351.473,-284.579 346.159,-280.024"/>
</g>
<!-- 2949889458284159759&#45;&gt;&#45;593903665615043072 -->
<g id="edge27" class="edge"><title>2949889458284159759&#45;&gt;&#45;593903665615043072</title>
<path fill="none" stroke="black" d="M625.924,-209.611C596.366,-217.025 548.634,-231.866 514,-256.693 503.667,-264.1 493.986,-273.445 485.35,-283.156"/>
<polygon fill="black" stroke="black" points="482.49,-281.116 478.656,-290.993 487.813,-285.662 482.49,-281.116"/>
</g>
<!-- 2949889458284159759&#45;&gt;&#45;7768445971166761754 -->
<g id="edge44" class="edge"><title>2949889458284159759&#45;&gt;&#45;7768445971166761754</title>
<path fill="none" stroke="black" d="M643.881,-220.815C636.034,-235.55 624.228,-257.718 612.957,-278.88"/>
<polygon fill="black" stroke="black" points="609.784,-277.393 608.173,-287.864 615.963,-280.683 609.784,-277.393"/>
</g>
<!-- 2949889458284159759&#45;&gt;7324588239574472119 -->
<g id="edge52" class="edge"><title>2949889458284159759&#45;&gt;7324588239574472119</title>
<path fill="none" stroke="black" d="M660.979,-220.815C667.699,-235.236 677.738,-256.778 687.408,-277.529"/>
<polygon fill="black" stroke="black" points="684.268,-279.078 691.664,-286.664 690.613,-276.121 684.268,-279.078"/>
</g>
<!-- 8490506041504015725 -->
<g id="node7" class="node"><title>8490506041504015725</title>
<polygon fill="none" stroke="black" points="913.5,-495.078 806.5,-495.078 806.5,-459.078 913.5,-459.078 913.5,-495.078"/>
<text text-anchor="middle" x="860" y="-473.378" font-family="Times,serif" font-size="14.00">cv&#45;n&#45;samples&#45;#0</text>
</g>
<!-- 8490506041504015725&#45;&gt;&#45;3892994624673990255 -->
<g id="edge34" class="edge"><title>8490506041504015725&#45;&gt;&#45;3892994624673990255</title>
<path fill="none" stroke="black" d="M817.773,-495.12C769.295,-514.684 688.839,-547.155 629.507,-571.099"/>
<polygon fill="black" stroke="black" points="628.137,-567.878 620.174,-574.866 630.757,-574.369 628.137,-567.878"/>
</g>
<!-- &#45;353569814530233409&#45;&gt;8490506041504015725 -->
<g id="edge6" class="edge"><title>&#45;353569814530233409&#45;&gt;8490506041504015725</title>
<path fill="none" stroke="black" d="M856.667,-400.971C857.408,-417.664 858.176,-434.976 858.788,-448.767"/>
<polygon fill="black" stroke="black" points="855.302,-449.158 859.242,-458.993 862.295,-448.847 855.302,-449.158"/>
</g>
<!-- 279111215539362094 -->
<g id="node9" class="node"><title>279111215539362094</title>
<polygon fill="none" stroke="black" points="1076,-495.078 932,-495.078 932,-459.078 1076,-459.078 1076,-495.078"/>
<text text-anchor="middle" x="1004" y="-473.378" font-family="Times,serif" font-size="14.00">(&#39;svc&#45;fit&#45;score&#45;#0&#39;, 1, 2)</text>
</g>
<!-- 279111215539362094&#45;&gt;&#45;3892994624673990255 -->
<g id="edge36" class="edge"><title>279111215539362094&#45;&gt;&#45;3892994624673990255</title>
<path fill="none" stroke="black" d="M941.902,-495.12C861.261,-517.25 720.447,-555.894 632.488,-580.033"/>
<polygon fill="black" stroke="black" points="631.542,-576.663 622.825,-582.685 633.394,-583.413 631.542,-576.663"/>
</g>
<!-- 4523972656863078496&#45;&gt;279111215539362094 -->
<g id="edge8" class="edge"><title>4523972656863078496&#45;&gt;279111215539362094</title>
<path fill="none" stroke="black" d="M997.089,-398.22C998.637,-415.653 1000.27,-434.02 1001.56,-448.533"/>
<polygon fill="black" stroke="black" points="998.096,-449.15 1002.47,-458.802 1005.07,-448.531 998.096,-449.15"/>
</g>
<!-- &#45;8761648760315664272 -->
<g id="node11" class="node"><title>&#45;8761648760315664272</title>
<polygon fill="none" stroke="black" points="140,-495.078 28,-495.078 28,-459.078 140,-459.078 140,-495.078"/>
<text text-anchor="middle" x="84" y="-473.378" font-family="Times,serif" font-size="14.00">cv&#45;parameters&#45;#0</text>
</g>
<!-- &#45;8761648760315664272&#45;&gt;&#45;3892994624673990255 -->
<g id="edge37" class="edge"><title>&#45;8761648760315664272&#45;&gt;&#45;3892994624673990255</title>
<path fill="none" stroke="black" d="M140.226,-492.852C223.533,-514.741 380.091,-555.877 474.921,-580.794"/>
<polygon fill="black" stroke="black" points="474.189,-584.22 484.751,-583.377 475.968,-577.45 474.189,-584.22"/>
</g>
<!-- &#45;5247187369189249040 -->
<g id="node26" class="node"><title>&#45;5247187369189249040</title>
<ellipse fill="none" stroke="black" cx="194" cy="-852.26" rx="70.3881" ry="70.3881"/>
<text text-anchor="middle" x="194" y="-848.56" font-family="Times,serif" font-size="14.00">get_best_params</text>
</g>
<!-- &#45;8761648760315664272&#45;&gt;&#45;5247187369189249040 -->
<g id="edge46" class="edge"><title>&#45;8761648760315664272&#45;&gt;&#45;5247187369189249040</title>
<path fill="none" stroke="black" d="M89.0123,-495.083C103.333,-543.667 145.089,-685.326 171.423,-774.664"/>
<polygon fill="black" stroke="black" points="168.132,-775.881 174.317,-784.483 174.847,-773.902 168.132,-775.881"/>
</g>
<!-- &#45;3994088932482667006 -->
<g id="node12" class="node"><title>&#45;3994088932482667006</title>
<ellipse fill="none" stroke="black" cx="111" cy="-339.886" rx="83.3857" ry="83.3857"/>
<text text-anchor="middle" x="111" y="-336.186" font-family="Times,serif" font-size="14.00">decompress_params</text>
</g>
<!-- &#45;3994088932482667006&#45;&gt;&#45;8761648760315664272 -->
<g id="edge13" class="edge"><title>&#45;3994088932482667006&#45;&gt;&#45;8761648760315664272</title>
<path fill="none" stroke="black" d="M94.8264,-421.869C92.8897,-431.566 91.0295,-440.881 89.414,-448.97"/>
<polygon fill="black" stroke="black" points="85.9716,-448.336 87.4453,-458.827 92.8361,-449.707 85.9716,-448.336"/>
</g>
<!-- &#45;4083340335499512659 -->
<g id="node13" class="node"><title>&#45;4083340335499512659</title>
<polygon fill="none" stroke="black" points="250,-1176.55 138,-1176.55 138,-1140.55 250,-1140.55 250,-1176.55"/>
<text text-anchor="middle" x="194" y="-1154.85" font-family="Times,serif" font-size="14.00">best&#45;estimator&#45;#0</text>
</g>
<!-- 4077005755129761663&#45;&gt;&#45;4083340335499512659 -->
<g id="edge14" class="edge"><title>4077005755129761663&#45;&gt;&#45;4083340335499512659</title>
<path fill="none" stroke="black" d="M194,-1104.72C194,-1113.29 194,-1122.29 194,-1130.38"/>
<polygon fill="black" stroke="black" points="190.5,-1130.38 194,-1140.38 197.5,-1130.38 190.5,-1130.38"/>
</g>
<!-- 1836933897881009598 -->
<g id="node15" class="node"><title>1836933897881009598</title>
<polygon fill="none" stroke="black" points="244.5,-994.453 143.5,-994.453 143.5,-958.453 244.5,-958.453 244.5,-994.453"/>
<text text-anchor="middle" x="194" y="-972.753" font-family="Times,serif" font-size="14.00">best&#45;params&#45;#0</text>
</g>
<!-- 1836933897881009598&#45;&gt;4077005755129761663 -->
<g id="edge17" class="edge"><title>1836933897881009598&#45;&gt;4077005755129761663</title>
<path fill="none" stroke="black" d="M194,-994.622C194,-1001.97 194,-1010.93 194,-1020.01"/>
<polygon fill="black" stroke="black" points="190.5,-1020.22 194,-1030.22 197.5,-1020.22 190.5,-1020.22"/>
</g>
<!-- 279109954337703075 -->
<g id="node16" class="node"><title>279109954337703075</title>
<polygon fill="none" stroke="black" points="302,-495.078 158,-495.078 158,-459.078 302,-459.078 302,-495.078"/>
<text text-anchor="middle" x="230" y="-473.378" font-family="Times,serif" font-size="14.00">(&#39;svc&#45;fit&#45;score&#45;#0&#39;, 0, 2)</text>
</g>
<!-- 279109954337703075&#45;&gt;&#45;3892994624673990255 -->
<g id="edge33" class="edge"><title>279109954337703075&#45;&gt;&#45;3892994624673990255</title>
<path fill="none" stroke="black" d="M274.711,-495.12C327.054,-515.071 414.608,-548.442 477.747,-572.508"/>
<polygon fill="black" stroke="black" points="476.679,-575.846 487.27,-576.138 479.172,-569.306 476.679,-575.846"/>
</g>
<!-- 4708006175386848269&#45;&gt;279109954337703075 -->
<g id="edge18" class="edge"><title>4708006175386848269&#45;&gt;279109954337703075</title>
<path fill="none" stroke="black" d="M281.299,-390.459C269.184,-410.679 255.679,-433.22 245.567,-450.096"/>
<polygon fill="black" stroke="black" points="242.467,-448.461 240.329,-458.838 248.471,-452.059 242.467,-448.461"/>
</g>
<!-- 279109954341198222 -->
<g id="node18" class="node"><title>279109954341198222</title>
<polygon fill="none" stroke="black" points="464,-495.078 320,-495.078 320,-459.078 464,-459.078 464,-495.078"/>
<text text-anchor="middle" x="392" y="-473.378" font-family="Times,serif" font-size="14.00">(&#39;svc&#45;fit&#45;score&#45;#0&#39;, 0, 1)</text>
</g>
<!-- 279109954341198222&#45;&gt;&#45;3892994624673990255 -->
<g id="edge35" class="edge"><title>279109954341198222&#45;&gt;&#45;3892994624673990255</title>
<path fill="none" stroke="black" d="M414.525,-495.25C433.908,-510.025 462.854,-532.091 489.362,-552.298"/>
<polygon fill="black" stroke="black" points="487.422,-555.22 497.497,-558.499 491.666,-549.653 487.422,-555.22"/>
</g>
<!-- &#45;593903665615043072&#45;&gt;279109954341198222 -->
<g id="edge23" class="edge"><title>&#45;593903665615043072&#45;&gt;279109954341198222</title>
<path fill="none" stroke="black" d="M424.503,-394.706C416.975,-413.552 408.851,-433.89 402.609,-449.519"/>
<polygon fill="black" stroke="black" points="399.262,-448.461 398.803,-459.046 405.763,-451.058 399.262,-448.461"/>
</g>
<!-- 2017832414299185584&#45;&gt;8950244540730565118 -->
<g id="edge28" class="edge"><title>2017832414299185584&#45;&gt;8950244540730565118</title>
<path fill="none" stroke="black" d="M750.583,-146.019C754.641,-155.666 758.983,-165.99 762.813,-175.095"/>
<polygon fill="black" stroke="black" points="759.626,-176.546 766.729,-184.407 766.079,-173.832 759.626,-176.546"/>
</g>
<!-- &#45;3401952363579676721 -->
<g id="node21" class="node"><title>&#45;3401952363579676721</title>
<polygon fill="none" stroke="black" points="405.5,-746.066 318.5,-746.066 318.5,-710.066 405.5,-710.066 405.5,-746.066"/>
<text text-anchor="middle" x="362" y="-724.366" font-family="Times,serif" font-size="14.00">cv&#45;results&#45;#0</text>
</g>
<!-- &#45;3401952363579676721&#45;&gt;&#45;5247187369189249040 -->
<g id="edge47" class="edge"><title>&#45;3401952363579676721&#45;&gt;&#45;5247187369189249040</title>
<path fill="none" stroke="black" d="M338.286,-746.314C317.623,-761.343 286.674,-783.853 258.732,-804.177"/>
<polygon fill="black" stroke="black" points="256.586,-801.41 250.558,-810.122 260.704,-807.071 256.586,-801.41"/>
</g>
<!-- &#45;3892994624673990255&#45;&gt;&#45;3401952363579676721 -->
<g id="edge31" class="edge"><title>&#45;3892994624673990255&#45;&gt;&#45;3401952363579676721</title>
<path fill="none" stroke="black" d="M494.302,-641.969C462.456,-662.453 424.359,-686.957 397.242,-704.398"/>
<polygon fill="black" stroke="black" points="395.009,-701.673 388.492,-710.026 398.796,-707.56 395.009,-701.673"/>
</g>
<!-- 279109954340033173 -->
<g id="node23" class="node"><title>279109954340033173</title>
<polygon fill="none" stroke="black" points="788,-495.078 644,-495.078 644,-459.078 788,-459.078 788,-495.078"/>
<text text-anchor="middle" x="716" y="-473.378" font-family="Times,serif" font-size="14.00">(&#39;svc&#45;fit&#45;score&#45;#0&#39;, 0, 0)</text>
</g>
<!-- 279109954340033173&#45;&gt;&#45;3892994624673990255 -->
<g id="edge38" class="edge"><title>279109954340033173&#45;&gt;&#45;3892994624673990255</title>
<path fill="none" stroke="black" d="M693.475,-495.25C674.092,-510.025 645.146,-532.091 618.638,-552.298"/>
<polygon fill="black" stroke="black" points="616.334,-549.653 610.503,-558.499 620.578,-555.22 616.334,-549.653"/>
</g>
<!-- 279111215537031996 -->
<g id="node24" class="node"><title>279111215537031996</title>
<polygon fill="none" stroke="black" points="626,-495.078 482,-495.078 482,-459.078 626,-459.078 626,-495.078"/>
<text text-anchor="middle" x="554" y="-473.378" font-family="Times,serif" font-size="14.00">(&#39;svc&#45;fit&#45;score&#45;#0&#39;, 1, 0)</text>
</g>
<!-- 279111215537031996&#45;&gt;&#45;3892994624673990255 -->
<g id="edge39" class="edge"><title>279111215537031996&#45;&gt;&#45;3892994624673990255</title>
<path fill="none" stroke="black" d="M554,-495.25C554,-502.382 554,-511.213 554,-520.714"/>
<polygon fill="black" stroke="black" points="550.5,-520.815 554,-530.815 557.5,-520.815 550.5,-520.815"/>
</g>
<!-- &#45;7768445971166761754&#45;&gt;279111215537031996 -->
<g id="edge40" class="edge"><title>&#45;7768445971166761754&#45;&gt;279111215537031996</title>
<path fill="none" stroke="black" d="M569.706,-397.436C566.148,-415.253 562.379,-434.122 559.426,-448.91"/>
<polygon fill="black" stroke="black" points="555.96,-448.391 557.434,-458.883 562.825,-449.762 555.96,-448.391"/>
</g>
<!-- &#45;5247187369189249040&#45;&gt;1836933897881009598 -->
<g id="edge45" class="edge"><title>&#45;5247187369189249040&#45;&gt;1836933897881009598</title>
<path fill="none" stroke="black" d="M194,-922.568C194,-931.648 194,-940.481 194,-948.246"/>
<polygon fill="black" stroke="black" points="190.5,-948.427 194,-958.427 197.5,-948.427 190.5,-948.427"/>
</g>
<!-- 7324588239574472119&#45;&gt;279109954340033173 -->
<g id="edge48" class="edge"><title>7324588239574472119&#45;&gt;279109954340033173</title>
<path fill="none" stroke="black" d="M716,-398.612C716,-415.997 716,-434.273 716,-448.705"/>
<polygon fill="black" stroke="black" points="712.5,-448.913 716,-458.913 719.5,-448.913 712.5,-448.913"/>
</g>
</g>
</svg>
